<svg xml:space="preserve" style="max-height: 500px" viewBox="266.7464566929134 191.38559999999998 295.0191226096738 273.408" y="0px" x="0px" xmlns:xlink="http://www.w3.org/1999/xlink" xmlns="http://www.w3.org/2000/svg" id="Layer_1" version="1.1" width="295.0191226096738" height="273.408">
<style type="text/css">
	.st0{fill:none;stroke:#000000;stroke-width:0.25;stroke-miterlimit:10;}
	.st1{fill:#999999;stroke:#000000;stroke-width:0.25;stroke-miterlimit:10;}
	.st2{fill:#7AC943;stroke:#000000;stroke-width:0.25;stroke-miterlimit:10;}
	.st3{fill:#2E3170;stroke:#000000;stroke-width:0.25;stroke-miterlimit:10;}
</style>
<path d="M485.5,286.21c0,5.09-0.3,10.54-1,16.29c-1.64,13.44-7.78,63.63-47,84c-7.07,3.67-21.48,9.64-43,8l-0.25-0.26&#10;&#9;c3.08-2.92,6.17-5.83,9.25-8.74c7.57-0.63,19.66-2.66,32-10c27.31-16.24,34.93-46.01,38-58c2.3-8.98,4.95-24.02,2.56-43.03&#10;&#9;c-0.16-1.31-0.35-2.63-0.56-3.97c-0.71,0.37-1.47,0.76-2.26,1.17c-7.56,3.87-18.78,9.28-32.74,14.83c-27.17,10.79-33.12,9.52-44,18&#10;&#9;c-2.78,2.16-23.97,19.22-25,47c-0.47,12.6,3.4,22.57,6,28c3.86-9.6,10.98-23.9,24-38c16.53-17.9,34.56-26.79,45-31&#10;&#9;c-9.59,6.63-22.18,16.9-34,32c-13.42,17.14-26.57,31.92-27,53c-0.05,2.41,0.06,4.66,0.27,6.74c-0.09,0.09-0.18,0.17-0.27,0.26&#10;&#9;c0.22,4.3,0.45,8.6,0.68,12.9c-4.04-1.38-7.94-3.05-11.68-4.99V389.5c-4.26-5.76-12.45-18.57-13-36c-0.96-30.02,21.47-49.96,25-53&#10;&#9;c15.31-13.18,25.42-10.12,62-26c6.76-2.93,12.84-5.83,18.15-8.5c6.54-3.29,11.89-6.24,15.85-8.5&#10;&#9;C483.98,264.54,485.51,274.4,485.5,286.21z" class="st0"/>
<path d="M544.5,356.5v-42l-25.91-4.44c-2.52-10.68-6.63-20.76-12.08-29.95v-0.01l16.54-25.13l-29.86-29.53l-23.88,17.09&#10;&#9;c-9.22-5.58-19.34-9.82-30.09-12.44l-5.72-28.59h-42l-4.95,28.89c-10.72,2.75-20.8,7.11-29.97,12.81l-24.16-17.29l-29.86,29.53&#10;&#9;l17.12,26.01c-4.9,8.57-8.67,17.88-11.07,27.72l-27.11,4.65v42l27.21,5.44c2.42,9.71,6.16,18.9,11.02,27.37l-16.17,24.57&#10;&#9;l29.86,29.53l22.67-16.23c16.63,10.45,36.31,16.5,57.4,16.5c20.77,0,40.16-5.86,56.62-16.02l21.32,15.27l29.87-29.53l-14.91-22.64&#10;&#9;c5.2-8.72,9.18-18.23,11.75-28.31L544.5,356.5z M414,420c-9.74,0-19.1-1.62-27.82-4.6c-4.04-1.38-7.94-3.05-11.68-4.99&#10;&#9;C346.87,396.1,328,367.26,328,334c0-47.5,38.5-86,86-86c19.84,0,38.1,6.71,52.65,18c6.54-3.29,11.89-6.24,15.85-8.5&#10;&#9;c1.48,7.04,3.01,16.9,3,28.71c9.17,13.67,14.5,30.1,14.5,47.79C500,381.5,461.5,420,414,420z" class="st1"/>
<path d="M473.5,317.5c-3.07,11.99-10.69,41.76-38,58c-12.34,7.34-24.43,9.37-32,10c-3.08,2.91-6.17,5.82-9.25,8.74&#10;&#9;c-2.83,2.66-5.65,5.33-8.48,8c-0.21-2.08-0.32-4.33-0.27-6.74c0.43-21.08,13.58-35.86,27-53c11.82-15.1,24.41-25.37,34-32&#10;&#9;c-10.44,4.21-28.47,13.1-45,31c-13.02,14.1-20.14,28.4-24,38c-2.6-5.43-6.47-15.4-6-28c1.03-27.78,22.22-44.84,25-47&#10;&#9;c10.88-8.48,16.83-7.21,44-18c13.96-5.55,25.18-10.96,32.74-14.83c0.79-0.41,1.55-0.8,2.26-1.17c0.21,1.34,0.4,2.66,0.56,3.97&#10;&#9;C478.45,293.48,475.8,308.52,473.5,317.5z" class="st2"/>
<path d="M466.65,266c-5.31,2.67-11.39,5.57-18.15,8.5c-36.58,15.88-46.69,12.82-62,26c-3.53,3.04-25.96,22.98-25,53&#10;&#9;c0.55,17.43,8.74,30.24,13,36v20.91C346.87,396.1,328,367.26,328,334c0-47.5,38.5-86,86-86C433.84,248,452.1,254.71,466.65,266z" class="st3"/>
<path d="M500,334c0,47.5-38.5,86-86,86c-9.74,0-19.1-1.62-27.82-4.6c-0.23-4.3-0.46-8.6-0.68-12.9&#10;&#9;c0.09-0.09,0.18-0.17,0.27-0.26c2.83-2.67,5.65-5.34,8.48-8l0.25,0.26c21.52,1.64,35.93-4.33,43-8c39.22-20.37,45.36-70.56,47-84&#10;&#9;c0.7-5.75,1-11.2,1-16.29C494.67,299.88,500,316.31,500,334z" class="st3"/>
</svg>